<svg id="レイヤー_1" data-name="レイヤー 1" xmlns="http://www.w3.org/2000/svg" viewBox="0 0 273.33 480"><title>Adope_svg</title><path d="M212.23,279.78l-12-18.32,20.87,8.39s13-20.54,32.06-9.31-.87,21.71-.87,21.71,32.59,5.24,16.71,26.32-35.06-2.93-35.06-2.93S227,331,211.5,315.64,212.23,279.78,212.23,279.78Z" style="fill:#f7c9dd"/><path d="M91.27,359.36S101.8,462,112.33,473.85s25,11.84,13.16-48.69-15.79-75-15.79-75Z" style="fill:#ffd7cc"/><path d="M173.35,359.36S162.82,462,152.29,473.85s-25,11.84-13.16-48.69,15.8-75,15.8-75Z" style="fill:#ffd7cc"/><path d="M121.17,260.13c-4.8-8.19-72.15,15.18-76-37.85-1.31-18.08-18.87-27.73-31.1-28s-17.72,15.19-11.5,26.33C16.39,245.32,31,283.72,92,275.6,118.52,272.07,126,268.31,121.17,260.13Z" style="fill:#e1c0b7"/><path d="M101.66,274.15c18.62-3.17,23.66-6.94,19.51-14-2-3.41-14.85-1.36-29.44-1.62A169.21,169.21,0,0,0,101.66,274.15Z" style="fill:#ffd7cc"/><path d="M45.19,261.12c.47-7,3.39-12.84,8-16.42-4.33-5.28-7.26-12.52-8-22.42-1.31-18.08-18.87-27.73-31.1-28s-17.72,15.19-11.5,26.33C12,237.41,21.74,260.5,46.19,271A30.12,30.12,0,0,1,45.19,261.12Z" style="fill:#ffd7cc"/><path d="M130.52,220.67,63.66,380.44s21.39,12.63,66.79,12.63,65-11.85,65-11.85Z" style="fill:#ff87ab"/><circle cx="131.84" cy="162.61" r="92.78" style="fill:#ffd7cc"/><path d="M90.09,174.69a8.76,8.76,0,1,0-8.75,8.75A8.76,8.76,0,0,0,90.09,174.69Z" style="fill:#221714"/><path d="M187.76,174.69a8.76,8.76,0,1,0-8.76,8.75A8.76,8.76,0,0,0,187.76,174.69Z" style="fill:#221714"/><path d="M130.44,226.36a35,35,0,0,1-30.21-17.46,6,6,0,0,1,10.47-6.05,22.77,22.77,0,0,0,39.48,0,6,6,0,1,1,10.47,6.05A35,35,0,0,1,130.44,226.36Z" style="fill:#ff545f"/><path d="M152.79,122.46c-5.44-7.41-14.13-5.47-18.64-2.38a5,5,0,1,0,5.62,8.18c.34-.23,3.34-2.22,5,.07a4.57,4.57,0,0,1,0,5c-1.63,2.47-5.1,3.42-9.56,2.63-9.58-1.73-18.06-16.11-20.27-21a5,5,0,0,0-9,4.07c.43,1,10.77,23.7,27.57,26.71a25.85,25.85,0,0,0,4.64.43c6.28,0,11.6-2.47,14.71-7l.36-.57A14.48,14.48,0,0,0,152.79,122.46Z" style="fill:#673a1b"/><path d="M138.1,146.78a27.38,27.38,0,0,1-4.76-.44c-17.15-3.08-27.62-26.11-28.06-27.09a5.62,5.62,0,0,1,10.25-4.61c2.19,4.83,10.51,19,19.8,20.64,4.2.75,7.42-.11,8.89-2.34a3.93,3.93,0,0,0,0-4.22c-1.21-1.67-3.47-.35-4.13.09a5.62,5.62,0,0,1-6.36-9.27c4.74-3.25,13.85-5.23,19.55,2.53h0a15.16,15.16,0,0,1,.41,16.85c-.11.18-.24.38-.38.58C150.12,144.2,144.71,146.78,138.1,146.78Zm-27.7-34.12a4.23,4.23,0,0,0-1.76.38,4.3,4.3,0,0,0-2.16,5.67c.43,1,10.62,23.38,27.1,26.34,8.16,1.46,15-1,18.68-6.29.12-.17.25-.36.35-.53a13.83,13.83,0,0,0-.35-15.38h0c-5.15-7-13.44-5.18-17.74-2.23a4.3,4.3,0,1,0,4.88,7.09c1.87-1.25,4.4-1.84,5.92.23a5.21,5.21,0,0,1,0,5.7c-1.78,2.72-5.52,3.78-10.23,2.94-9.85-1.77-18.51-16.41-20.76-21.4A4.34,4.34,0,0,0,110.4,112.66Z" style="fill:#673a1b"/><path d="M261.41,0,139,61.2s22.16,27.37,40.14,41.47,55.39,31.52,55.39,31.52Z" style="fill:#ff87ab"/><circle cx="137.87" cy="67.81" r="20.56" style="fill:#fff"/><circle cx="166.62" cy="78.06" r="20.56" style="fill:#fff"/><circle cx="192.24" cy="103.94" r="20.56" style="fill:#fff"/><circle cx="221.42" cy="123.16" r="22.8" style="fill:#fff"/><circle cx="196.26" cy="128.06" r="8.78" style="fill:#fff"/><circle cx="170.83" cy="104.97" r="8.78" style="fill:#fff"/><circle cx="184.75" cy="84.55" r="8.78" style="fill:#fff"/><circle cx="156.08" cy="59.16" r="8.78" style="fill:#fff"/><circle cx="129.32" cy="51.79" r="14.34" style="fill:#fff"/><circle cx="225.88" cy="141.26" r="14.34" style="fill:#fff"/><path d="M147.4,257.47c-8.86-2.93-15.56,83.68-61.26,1.87-8.82-15.78-20.82-16.95-29.33-10.91s-8.74,22.85.37,31.36c49.68,46.39,68.3,51.61,82.69,23.42C151.71,280,156.27,260.41,147.4,257.47Z" style="fill:#ffd7cc"/></svg>