<?xml version="1.0" encoding="utf-8"?>
<!-- Generator: Adobe Illustrator 23.0.1, SVG Export Plug-In . SVG Version: 6.00 Build 0)  -->
<svg version="1.1" id="レイヤー_1" xmlns="http://www.w3.org/2000/svg" xmlns:xlink="http://www.w3.org/1999/xlink" x="0px"
	 y="0px" viewBox="0 0 480 120" style="enable-background:new 0 0 480 120;" xml:space="preserve">
<style type="text/css">
	.st0{fill:#543590;}
	.st1{fill:#FFFFFF;}
	.st2{fill:#29282C;}
</style>
<g>
	<path class="st0" d="M452.9,47.51c0.86-3.07,1.36-6.29,1.36-9.63c0-19.59-15.88-35.48-35.48-35.48
		c-19.59,0-35.48,15.88-35.48,35.48c0,9.15,3.49,17.46,9.18,23.75c-2.79,3.7-6.66,6.67-10.58,8.71c-1.45,0.76-0.9,2.99,0.73,3.01
		c7.49,0.09,15.14-1.18,20.89-3.48c2.18,1.04,4.48,1.87,6.87,2.45c-0.86,3.07-1.36,6.29-1.36,9.63c0,2.65,0.31,5.21,0.86,7.69
		c-3.73,3.61-8.73,6.03-13.53,7.28c-1.58,0.41-1.55,2.71,0.04,3.1c6.3,1.53,12.96,2.11,18.61,1.62c6.36,9.52,17.2,15.79,29.51,15.79
		c19.59,0,35.48-15.88,35.48-35.48C480,65.25,468.44,51.28,452.9,47.51z"/>
	<path class="st1" d="M426.95,73.24c-1.49,0-2.19-0.96-2.19-1.87c0-1.07,0.75-2.08,2.19-2.08h15.2c1.44,0,2.08,1.01,2.08,1.97
		c0,0.96-0.64,1.97-2.08,1.97H426.95z M438.04,102.21c-1.39,0.05-2.88,0.11-4.43,0.11c-1.28,0-2.51-0.05-3.57-0.11
		c-2.13-0.16-3.47-1.65-3.52-3.73c0-1.23-0.05-2.45-0.05-3.63c0-1.17,0.05-2.29,0.05-3.36c0.05-1.81,1.17-3.52,3.47-3.57
		c1.33-0.05,2.72-0.11,4.16-0.11c1.44,0,2.77,0.05,4,0.11c1.81,0.05,3.79,1.33,3.84,3.36c0.05,1.07,0.05,2.35,0.05,3.63
		c0,1.28,0,2.51-0.05,3.57C441.94,100.55,440.39,102.1,438.04,102.21z M428.97,66.73c-1.44,0-2.08-0.91-2.08-1.87
		c0-1.01,0.75-2.03,2.08-2.03h10.67c1.33,0,1.97,0.96,1.97,1.92c0,0.96-0.64,1.92-1.97,1.92h-10.67V66.73z M429.08,79.37
		c-1.44,0-2.08-0.91-2.08-1.87c0-1.01,0.75-2.03,2.08-2.03h10.67c1.33,0,1.97,0.96,1.97,1.92c0,0.96-0.64,1.92-1.97,1.92h-10.67
		V79.37z M429.08,85.51c-1.44,0-2.08-0.91-2.08-1.87c0-1.01,0.75-2.03,2.08-2.03h10.67c1.33,0,1.97,0.96,1.97,1.92
		c0,0.96-0.64,1.92-1.97,1.92h-10.67V85.51z M437.99,95.01c0-0.85,0-1.71-0.05-2.35c-0.11-1.17-0.8-1.28-3.79-1.28
		c-0.8,0-1.65,0-2.4,0.05c-1.33,0.11-1.33,0.96-1.33,3.57c0,0.85,0.05,1.71,0.05,2.4c0.05,0.91,0.53,1.12,3.63,1.12
		c2.35,0,3.73,0,3.84-1.17C437.99,96.66,437.99,95.81,437.99,95.01z M447.7,67.64c-1.49,0-2.19-1.01-2.19-1.97
		c0-1.07,0.75-2.08,2.24-2.13c1.92-0.05,4-0.05,6.14-0.05c1.55,0,3.15,0,4.75,0.05c3.15,0.11,5.07,1.76,5.18,5.18
		c0.05,1.17,0.05,2.88,0.05,4.43c0,4.21-0.05,8.16-5.23,8.16c-1.55,0-3.15,0-4.69,0c-3.25,0-4.05,0.05-4.16,1.71
		c-0.11,2.08-0.21,5.01-0.21,7.79c0,1.76,0,3.47,0.11,4.85c0.11,1.87,1.39,2.29,5.6,2.29c4.43,0,6.4-0.64,6.4-4.85
		c0-1.49,1.07-2.19,2.24-2.19c0.59,0,2.56,0.21,2.56,2.56c0,8.43-6.35,8.8-11.31,8.8c-5.66,0-9.66-0.64-9.87-5.76
		c-0.05-1.39-0.11-3.36-0.11-5.55c0-3.31,0.11-7.04,0.21-9.44c0.11-2.08,1.39-4.43,5.18-4.43c1.81,0,3.89,0.05,5.71,0.05
		c3.15,0,3.25-0.11,3.25-4.43c0-1.07-0.05-2.24-0.16-3.52c-0.16-1.6-0.96-1.65-4.75-1.65C452.45,67.53,450.21,67.58,447.7,67.64
		L447.7,67.64z"/>
	<path class="st1" d="M399.75,42.14c-1.07,0-1.63-0.84-1.63-1.63c0-0.9,0.56-1.74,1.63-1.74l17.19,0.06v-1.91l-12.98,0
		c-1.12,0-1.69-0.79-1.69-1.57c0-0.84,0.62-1.63,1.69-1.63l12.98,0.06v-1.85c-3.88,0-7.87,0-11.8-0.06c-1.01,0-1.57-0.79-1.57-1.57
		c0-0.79,0.56-1.57,1.57-1.57h0.06c3.65,0.06,7.7,0.11,11.74,0.11V26.8h-17.02c-1.18,0-1.69-0.79-1.69-1.63s0.56-1.63,1.69-1.63
		h17.02v-1.85c-4.21,0-8.54,0-11.74,0.06h-0.06c-0.84,0-1.29-0.79-1.29-1.63c0-0.9,0.56-1.74,1.57-1.74
		c3.48-0.06,7.53-0.06,11.57-0.06v-1.91c0-1.29,1.12-1.97,2.19-1.97c1.07,0,2.13,0.62,2.13,1.97v1.91c2.47,0,4.94,0.06,7.13,0.11
		c3.15,0.06,4.94,1.24,5.06,3.6c0,0.39,0.06,0.84,0.06,1.29h4.83c1.29,0,1.91,0.9,1.91,1.85c0,0.9-0.62,1.85-1.91,1.85h-4.78
		c0,3.37-1.07,4.83-5.11,4.83c-2.36,0-4.78,0.06-7.19,0.06v1.91l12.87-0.06c1.12,0,1.63,0.79,1.63,1.57c0,0.84-0.56,1.63-1.63,1.63
		l-12.87-0.06v1.91l17.42-0.06c1.12,0,1.69,0.84,1.69,1.69c0,0.84-0.56,1.69-1.69,1.69L399.75,42.14L399.75,42.14z M419.69,57.53
		c-3.15,0-6.24-0.06-9.27-0.17c-5.22-0.17-5.34-2.64-5.34-6.8c0-3.48,0.06-6.46,5.17-6.52c2.75-0.06,6.4-0.11,9.94-0.11
		c2.98,0,5.9,0.06,8.2,0.11c4.94,0.17,5,3.88,5,6.35c0,4.61-0.45,6.8-5.06,7.02C425.42,57.48,422.56,57.53,419.69,57.53z
		 M428.85,48.77c-0.11-1.18-0.56-1.57-1.8-1.63c-2.7-0.06-5.79-0.11-8.82-0.11c-2.42,0-4.83,0.06-6.8,0.11
		c-1.35,0.06-1.8,0.67-1.85,1.63v0.28h19.27V48.77z M428.91,51.86h-19.33v0.56c0.11,1.63,0.17,1.63,9.44,1.63
		c9.72,0,9.78,0,9.83-1.69L428.91,51.86z M429.19,23.04c-0.06-0.84-0.62-1.29-1.52-1.29c-1.85-0.06-4.1-0.06-6.4-0.06v1.8h7.92
		L429.19,23.04L429.19,23.04z M429.24,26.8h-7.98v2.02c2.19,0,4.33-0.06,6.4-0.11c0.9,0,1.46-0.56,1.52-1.35L429.24,26.8z"/>
	<path class="st2" d="M172.45,53.19c-9.26,0-17.43,4.72-22.23,11.88c-4.81-7.16-12.98-11.88-22.23-11.88
		c-14.76,0-26.77,12.01-26.77,26.77v32.68c0,2.5,2.03,4.53,4.53,4.53c2.5,0,4.53-2.03,4.53-4.53V79.96c0-9.76,7.94-17.7,17.7-17.7
		s17.7,7.94,17.7,17.7v32.68c0,2.5,2.03,4.53,4.53,4.53c2.5,0,4.53-2.03,4.53-4.53V79.96c0-9.76,7.94-17.7,17.7-17.7
		c9.76,0,17.7,7.94,17.7,17.7v32.68c0,2.5,2.03,4.53,4.53,4.53c2.5,0,4.53-2.03,4.53-4.53V79.96
		C199.22,65.2,187.21,53.19,172.45,53.19z"/>
	<path class="st2" d="M266.21,53.19c-2.5,0-4.53,2.03-4.53,4.53v5.15c-5.84-6.03-14-9.8-23.04-9.8c-17.7,0-32.11,14.4-32.11,32.11
		s14.4,32.11,32.11,32.11c9.04,0,17.2-3.77,23.04-9.8v5.15c0,2.5,2.03,4.53,4.53,4.53s4.53-2.03,4.53-4.53V57.73
		C270.74,55.22,268.71,53.19,266.21,53.19z M238.63,108.22c-12.7,0-23.04-10.34-23.04-23.04s10.34-23.04,23.04-23.04
		s23.04,10.34,23.04,23.04S251.34,108.22,238.63,108.22z"/>
	<path class="st2" d="M363.02,52.82h-8.77V28.08c0-2.5-2.03-4.53-4.53-4.53c-2.5,0-4.53,2.03-4.53,4.53v24.74h-14.56
		c-15.39,0-28.06,6.91-36.01,18.39V57.73c0-2.5-2.03-4.53-4.53-4.53c-2.5,0-4.53,2.03-4.53,4.53v54.92c0,2.5,2.03,4.53,4.53,4.53
		c2.5,0,4.53-2.03,4.53-4.53v-10.12c0-24.31,14.47-40.64,36.01-40.64h14.56v50.76c0,2.5,2.03,4.53,4.53,4.53
		c2.5,0,4.53-2.03,4.53-4.53V61.89h8.77c2.5,0,4.53-2.03,4.53-4.53C367.55,54.85,365.52,52.82,363.02,52.82z"/>
	<g>
		<path class="st2" d="M88.61,78.96c-4.63-7.94-14.07-12.93-28.03-14.82c-17.51-2.37-19.61-9.96-19.66-15.46
			c-0.04-3.94,1.32-7.32,4.04-10.07c4.11-4.15,10.5-6,15.01-6c5.67,0,11.85,2.36,13.59,4.47c1.6,1.93,4.45,2.2,6.38,0.61
			c1.93-1.59,2.2-4.45,0.61-6.38c-4.21-5.09-13.54-7.76-20.58-7.76c-6.21,0-15.11,2.28-21.45,8.69c-4.42,4.46-6.72,10.18-6.67,16.53
			c0.09,9.43,4.93,21.3,27.51,24.36c10.9,1.48,18.31,5.08,21.42,10.4c2.93,5.02,1.37,10.26,0.56,12.28
			c-2.95,7.4-10.39,12.22-19.4,12.22c-10.95,0-25.53-9.66-31.65-23.83c0.71-1.79,1.11-3.73,1.11-5.77c0-0.96-0.1-1.89-0.26-2.8
			c-2.09,4.35-5.65,8.29-10.19,11.23c-4.5,2.91-9.38,4.43-13.92,4.64c2.47,1.64,5.43,2.61,8.62,2.62
			c13.26,15.18,33.16,22.99,45.58,22.99c0.28,0,0.57,0,0.86-0.01c12.74-0.2,23.35-7.06,27.68-17.92
			C92.5,92.29,92.08,84.93,88.61,78.96z"/>
		<path class="st2" d="M28.13,72.59c0.35-0.89,0.59-1.77,0.77-2.63c-2.79-4.34-7.66-7.23-13.2-7.23C7.03,62.73,0,69.76,0,78.42
			c0,3.3,1.03,6.36,2.77,8.89c4.74,0.91,10.66-0.33,16.01-3.8C24.82,79.61,26.08,77.86,28.13,72.59z"/>
	</g>
</g>
</svg>
