<?xml version="1.0" encoding="utf-8"?>
<!-- Generator: Adobe Illustrator 23.0.1, SVG Export Plug-In . SVG Version: 6.00 Build 0)  -->
<svg version="1.1" id="レイヤー_1" xmlns="http://www.w3.org/2000/svg" xmlns:xlink="http://www.w3.org/1999/xlink" x="0px"
	 y="0px" viewBox="0 0 28 28" style="enable-background:new 0 0 28 28;" xml:space="preserve">
<style type="text/css">
	.st0{fill:#553691;}
	.st1{fill:#FFFFFF;}
</style>
<g>
	<circle class="st0" cx="14.43" cy="14" r="13.57"/>
	<path class="st0" d="M5.29,21.58c-1,2.13-2.97,3.8-4.97,4.84c-0.55,0.29-0.34,1.14,0.28,1.15c4.42,0.05,9.01-1.13,10.79-3.09"/>
	<g>
		<path class="st1" d="M21.74,15.94c-0.88-1.5-2.66-2.45-5.31-2.81c-3.32-0.45-3.71-1.89-3.72-2.93c-0.01-0.75,0.25-1.39,0.76-1.91
			c0.78-0.79,1.99-1.14,2.84-1.14c1.07,0,2.24,0.45,2.57,0.85c0.3,0.37,0.84,0.42,1.21,0.12c0.37-0.3,0.42-0.84,0.12-1.21
			c-0.8-0.97-2.56-1.47-3.9-1.47c-1.18,0-2.86,0.43-4.06,1.65c-0.84,0.85-1.27,1.93-1.26,3.13c0.02,1.79,0.93,4.04,5.21,4.62
			c2.07,0.28,3.47,0.96,4.06,1.97c0.55,0.95,0.26,1.94,0.11,2.33c-0.56,1.4-1.97,2.31-3.68,2.31c-2.08,0-4.84-1.83-6-4.52
			c0.13-0.34,0.21-0.71,0.21-1.09c0-0.18-0.02-0.36-0.05-0.53c-0.4,0.82-1.07,1.57-1.93,2.13c-0.85,0.55-1.78,0.84-2.64,0.88
			c0.47,0.31,1.03,0.49,1.63,0.5c2.51,2.88,6.28,4.36,8.64,4.36c0.05,0,0.11,0,0.16,0c2.41-0.04,4.42-1.34,5.24-3.39
			C22.48,18.47,22.4,17.07,21.74,15.94z"/>
		<path class="st1" d="M10.28,14.73c0.07-0.17,0.11-0.33,0.15-0.5c-0.53-0.82-1.45-1.37-2.5-1.37c-1.64,0-2.97,1.33-2.97,2.97
			c0,0.63,0.19,1.21,0.52,1.68c0.9,0.17,2.02-0.06,3.03-0.72C9.66,16.06,9.89,15.73,10.28,14.73z"/>
	</g>
</g>
</svg>
